<svg width="15" height="11" viewBox="0 0 15 11" fill="none" xmlns="http://www.w3.org/2000/svg">
<path d="M0.709118 5.67544C0.618327 5.53168 0.572931 5.4598 0.547519 5.34894C0.528431 5.26566 0.528431 5.13433 0.547519 5.05105C0.572931 4.94018 0.618327 4.8683 0.709118 4.72454C1.45939 3.53655 3.69264 0.533325 7.09597 0.533325C10.4993 0.533325 12.7326 3.53655 13.4828 4.72454C13.5736 4.8683 13.619 4.94018 13.6444 5.05105C13.6635 5.13433 13.6635 5.26566 13.6444 5.34894C13.619 5.4598 13.5736 5.53168 13.4828 5.67544C12.7326 6.86343 10.4993 9.86666 7.09597 9.86666C3.69264 9.86666 1.45939 6.86343 0.709118 5.67544Z" stroke="#0A0D12" stroke-width="1.06667" stroke-linecap="round" stroke-linejoin="round"/>
<path d="M7.09597 7.19999C8.20054 7.19999 9.09597 6.30456 9.09597 5.19999C9.09597 4.09542 8.20054 3.19999 7.09597 3.19999C5.9914 3.19999 5.09597 4.09542 5.09597 5.19999C5.09597 6.30456 5.9914 7.19999 7.09597 7.19999Z" stroke="#0A0D12" stroke-width="1.06667" stroke-linecap="round" stroke-linejoin="round"/>
</svg>
