<svg width="42" height="42" viewBox="0 0 42 42" fill="none" xmlns="http://www.w3.org/2000/svg">
<g clip-path="url(#clip0_31417_3459)">
<rect x="0.741211" y="0.740723" width="40" height="40" rx="2.96296" fill="white"/>
<path d="M10.2939 22.9743C10.2939 22.6042 10.2979 21.6149 10.2888 21.493C10.2968 20.021 9.22646 18.9826 8.55029 19.0635C8.08241 19.1041 7.69029 19.2949 7.47974 19.8437C7.2846 20.3552 7.45906 21.0356 8.10786 21.1952C8.8016 21.3667 9.2067 21.5093 9.49987 21.7106C9.85909 21.957 10.1523 22.4277 10.1601 22.9748" fill="#0060AF"/>
<path d="M10.5705 25.2123C9.34725 25.2123 8.0901 24.911 6.83462 24.3151L6.80381 24.3L6.78908 24.2686C6.22568 23.0793 5.92773 21.7785 5.92773 20.5059C5.92773 19.2352 6.21345 17.9901 6.77728 16.8024L6.79276 16.7709L6.82416 16.7551C7.98554 16.205 9.2349 15.9263 10.5387 15.9263C11.7532 15.9263 13.0503 16.2365 14.2891 16.825L14.3209 16.8392L14.3356 16.8713C14.9098 18.0825 15.2126 19.3829 15.2126 20.6345C15.2126 21.8812 14.9218 23.1274 14.347 24.3378L14.3318 24.3696L14.2998 24.3843C13.1562 24.9257 11.8665 25.2123 10.5705 25.2123ZM6.95082 24.152C8.17046 24.7257 9.38684 25.0155 10.5705 25.0155C11.8255 25.0155 13.0737 24.7411 14.1848 24.2211C14.7367 23.0482 15.0165 21.841 15.0165 20.6345C15.0165 19.4231 14.7245 18.1631 14.1722 16.9875C12.9699 16.4224 11.7144 16.1227 10.5387 16.1227C9.27642 16.1227 8.06657 16.3904 6.94027 16.9185C6.39964 18.0697 6.12447 19.276 6.12447 20.5059C6.12447 21.7382 6.41044 22.9988 6.95082 24.152Z" fill="#0060AF"/>
<path d="M10.0041 22.9754C10.0063 22.501 9.74153 22.0815 9.39545 21.856C9.08846 21.6568 8.67633 21.5259 8.01147 21.3573C7.80595 21.3047 7.59097 21.1879 7.52441 21.0391C7.34836 21.2165 7.31638 21.6153 7.34736 21.8483C7.38335 22.1181 7.69854 22.5626 8.17312 22.58C8.46294 22.5916 8.82937 22.5176 9.00508 22.4803C9.30822 22.4148 9.78782 22.6047 9.86417 22.9748" fill="#0060AF"/>
<path d="M10.5383 16.7695C9.7336 16.7695 9.03851 17.3002 9.04102 18.2185C9.04354 18.9907 9.66453 19.404 9.88613 19.6993C10.221 20.1443 10.4022 20.6709 10.4211 21.4767C10.4357 22.1181 10.435 22.7514 10.4382 22.9758H10.6159C10.6128 22.741 10.6047 22.0687 10.6139 21.4569C10.626 20.6508 10.8138 20.1443 11.1488 19.6993C11.3723 19.404 11.9928 18.9907 11.9942 18.2185C11.9972 17.3002 11.3025 16.7695 10.4985 16.7695" fill="#0060AF"/>
<path d="M10.7422 22.9743C10.7422 22.6042 10.738 21.6149 10.747 21.493C10.7391 20.021 11.8087 18.9826 12.4855 19.0635C12.9534 19.1041 13.3451 19.2949 13.5562 19.8437C13.7512 20.3552 13.5757 21.0356 12.9277 21.1952C12.2336 21.3667 11.829 21.5093 11.5351 21.7106C11.1763 21.957 10.9035 22.4277 10.8951 22.9748" fill="#0060AF"/>
<path d="M11.0322 22.9754C11.0297 22.501 11.2944 22.0815 11.6395 21.856C11.9478 21.6568 12.3604 21.5259 13.0247 21.3573C13.2306 21.3047 13.4453 21.1879 13.5107 21.0391C13.6876 21.2165 13.7195 21.6153 13.6885 21.8483C13.6518 22.1181 13.3374 22.5626 12.8637 22.58C12.5739 22.5916 12.2056 22.5176 12.0306 22.4803C11.7287 22.4148 11.2477 22.6047 11.171 22.9748" fill="#0060AF"/>
<path d="M11.2807 24.5065L11.1777 23.7552L11.4263 23.7175C11.4868 23.7092 11.5605 23.7197 11.5899 23.7577C11.6225 23.7973 11.6325 23.83 11.6388 23.8819C11.6481 23.9461 11.6295 24.0204 11.5572 24.0574V24.0596C11.638 24.0596 11.6868 24.1176 11.701 24.2156C11.703 24.2363 11.7092 24.2862 11.703 24.3279C11.6866 24.4271 11.6275 24.459 11.5276 24.473L11.2807 24.5065ZM11.4407 24.372C11.4702 24.3678 11.5 24.3662 11.5234 24.3513C11.5591 24.3279 11.5559 24.278 11.5509 24.2409C11.5385 24.1593 11.5172 24.1284 11.4307 24.1412L11.3764 24.1495L11.4108 24.3762L11.4407 24.372ZM11.3886 24.0248C11.4215 24.0195 11.4661 24.0155 11.4847 23.9843C11.4944 23.9634 11.5069 23.9469 11.4987 23.9005C11.4886 23.8455 11.4703 23.8114 11.4005 23.8246L11.3355 23.8351L11.3611 24.0277" fill="#0060AF"/>
<path d="M12.3569 24.0549C12.3588 24.0689 12.3611 24.0845 12.3619 24.0985C12.382 24.2355 12.3569 24.3489 12.2029 24.3802C11.9752 24.424 11.9315 24.2826 11.8914 24.0845L11.8701 23.9773C11.8387 23.7878 11.8252 23.6443 12.0472 23.6001C12.1724 23.5773 12.2551 23.6271 12.2895 23.7516C12.2949 23.7702 12.3016 23.7886 12.3041 23.8073L12.1679 23.8354C12.1521 23.7886 12.1313 23.705 12.07 23.712C11.96 23.7253 11.9963 23.8621 12.0076 23.9193L12.0486 24.125C12.0609 24.1872 12.0853 24.2866 12.1805 24.2674C12.2578 24.2519 12.2241 24.1315 12.2173 24.0822" fill="#0060AF"/>
<path d="M12.5764 24.2821L12.5293 23.5046L12.7123 23.4487L13.096 24.125L12.9519 24.1681L12.861 23.9962L12.701 24.0443L12.7217 24.2397L12.5764 24.2821ZM12.6876 23.9187L12.8032 23.8852L12.6497 23.5706" fill="#0060AF"/>
<path d="M8.05645 23.6946C8.11371 23.5113 8.16503 23.3763 8.38352 23.4363C8.50047 23.4689 8.57297 23.5205 8.56954 23.6564C8.56897 23.6866 8.55899 23.7174 8.55246 23.7473L8.41642 23.7097C8.43425 23.6347 8.44555 23.5752 8.35313 23.5467C8.24631 23.5174 8.22028 23.6469 8.20554 23.7028L8.15021 23.9067C8.13263 23.9672 8.11153 24.0672 8.20554 24.093C8.28323 24.114 8.33036 24.0377 8.35849 23.9264L8.26331 23.9012L8.29621 23.7832L8.51998 23.8552L8.41374 24.2481L8.31077 24.2201L8.33396 24.1371H8.33103C8.28365 24.205 8.2258 24.2121 8.17515 24.2024C7.95138 24.1418 7.97474 23.9956 8.02815 23.8002" fill="#0060AF"/>
<path d="M8.889 24.0259L8.82161 24.3455L8.66992 24.3127L8.83158 23.5664L9.09017 23.6248C9.24153 23.6575 9.28724 23.7249 9.26581 23.8636C9.25358 23.9432 9.21432 24.029 9.11847 24.0221L9.11746 24.0208C9.1985 24.0491 9.20536 24.09 9.19122 24.1607C9.18511 24.1907 9.143 24.3731 9.17204 24.4026L9.17305 24.4249L9.01608 24.384C9.00955 24.3334 9.03174 24.2425 9.04053 24.1922C9.0494 24.1477 9.06355 24.0849 9.01834 24.0613C8.98293 24.0424 8.96979 24.0434 8.92977 24.0342L8.889 24.0259ZM8.91487 23.9103L9.017 23.9379C9.07904 23.9468 9.11353 23.9147 9.12575 23.8397C9.1368 23.771 9.12249 23.7441 9.06681 23.7308L8.95732 23.7086" fill="#0060AF"/>
<path d="M9.86129 23.7337L10.0113 23.7512L9.94668 24.2758C9.91529 24.4421 9.85099 24.5149 9.66799 24.4921C9.48181 24.4686 9.43761 24.3838 9.44891 24.2161L9.51396 23.6919L9.66515 23.7092L9.60027 24.2217C9.5934 24.2774 9.58051 24.3599 9.67955 24.3698C9.76736 24.3765 9.78729 24.3183 9.79717 24.246" fill="#0060AF"/>
<path d="M10.1777 24.5208L10.2229 23.7705L10.5111 23.783C10.6473 23.7897 10.683 23.9009 10.6787 24.0071C10.6747 24.0716 10.6546 24.1437 10.5983 24.1828C10.5522 24.216 10.4929 24.2239 10.4379 24.2212L10.344 24.216L10.3252 24.5305L10.1777 24.5208ZM10.3483 24.1016L10.4246 24.1059C10.4866 24.1081 10.5277 24.0836 10.5331 23.9925C10.5361 23.905 10.5031 23.8902 10.4227 23.8867L10.3622 23.8846" fill="#0060AF"/>
<path d="M30.5062 17.4946L29.3606 19.5738C28.9282 19.2227 28.4003 18.9643 27.7266 18.9643C26.1324 18.9643 25.4849 20.1526 25.4849 20.9897C25.4849 21.611 25.8917 22.5278 27.3102 22.5278C27.9056 22.5278 28.752 22.1136 28.9956 21.9251L27.8626 24.3374C27.3226 24.4451 27.1452 24.5119 26.688 24.5261C24.1492 24.6018 23.1233 23.0422 23.124 21.4485C23.1257 19.3418 24.9988 16.7796 28.104 16.7796C28.2943 16.7796 28.527 16.8454 28.726 16.9183L28.9271 16.6611" fill="#0060AF"/>
<path d="M35.2333 16.7261L35.5577 24.2832H33.1435L33.1421 22.9871H31.4959L30.9541 24.2832H28.3359L31.0732 18.8868L30.4559 18.8827L31.6287 16.7261H35.2333ZM33.1265 19.038L32.1957 21.2361H33.1545" fill="#0060AF"/>
<path d="M21.6 16.7261C22.7955 16.7328 23.4711 17.3818 23.4711 18.3192C23.4711 19.1834 22.7586 19.9484 21.9764 20.344C22.7817 20.64 22.8513 21.3666 22.8513 21.8807C22.8513 23.1227 21.6051 24.2833 19.9851 24.2833H16.4521L17.8303 18.962L17.2642 18.9587L18.4214 16.7261C18.4214 16.7261 20.6278 16.7194 21.6 16.7261ZM20.427 19.7901C20.6743 19.7901 21.111 19.7275 21.2201 19.2489C21.3398 18.7293 20.93 18.7154 20.7334 18.7154L20.0311 18.7123L19.7861 19.7901L20.427 19.7901ZM19.434 21.1255L19.1106 22.3675H19.9376C20.263 22.3675 20.7065 22.206 20.8151 21.8019C20.9225 21.3965 20.6125 21.1255 20.2882 21.1255" fill="#0060AF"/>
</g>
<rect x="0.370841" y="0.370352" width="40.7407" height="40.7407" rx="3.33333" stroke="#D5D7DA" stroke-width="0.740741"/>
<defs>
<clipPath id="clip0_31417_3459">
<rect x="0.741211" y="0.740723" width="40" height="40" rx="2.96296" fill="white"/>
</clipPath>
</defs>
</svg>
