<svg width="42" height="42" viewBox="0 0 42 42" fill="none" xmlns="http://www.w3.org/2000/svg">
<rect x="0.370841" y="0.370352" width="40.7407" height="40.7407" rx="8.37037" stroke="#D5D7DA" stroke-width="0.740741"/>
<path fill-rule="evenodd" clip-rule="evenodd" d="M27.7397 16.6303C27.1693 16.9715 25.8239 17.7684 25.3217 18.0652C25.0157 18.2263 24.3068 18.2966 23.9058 17.7382C23.8986 17.7281 23.3725 17.0491 23.351 17.0236C23.336 17.0055 22.9959 16.4844 22.238 16.4681C22.126 16.4654 21.5693 16.4623 21.0261 16.7812C20.3041 17.2073 18.6249 18.1989 18.6249 18.1989C18.6244 18.1989 18.6244 18.1998 18.6236 18.1998C17.9333 18.6077 17.3955 18.9253 17.3955 18.9253L18.0309 19.7314C18.3282 20.1127 18.9985 20.4076 19.5798 20.0629C19.5798 20.0629 21.7277 18.7781 21.7356 18.7744C22.6646 18.2482 23.3813 18.2482 23.8571 18.444C24.2841 18.6304 24.6556 19.0948 24.6556 19.0948C24.6556 19.0948 25.1411 19.7163 25.2268 19.825C25.503 20.1762 25.9603 20.0382 25.9603 20.0382C25.9603 20.0382 26.1297 20.0184 26.3851 19.8617C26.3851 19.8617 28.4657 18.6157 28.467 18.6153C29.1276 18.2149 29.7335 18.1402 30.0432 18.1696C31.0131 18.2607 31.3144 18.9606 31.735 19.4488C31.9827 19.736 32.2061 19.8991 32.5479 19.8909C32.7724 19.8859 33.0261 19.7453 33.0635 19.7199L35.5549 18.2348C35.5549 18.2348 35.2993 17.8371 34.7758 17.2183C34.3072 16.6663 33.8095 16.916 33.4127 17.119C33.246 17.2042 32.642 17.6192 32.0436 17.9088C31.6172 18.115 31.0047 18.053 30.669 17.6246C30.649 17.5985 30.1059 16.9194 30.0488 16.8359C29.8297 16.5523 29.402 16.2983 28.854 16.2983C28.5207 16.2983 28.1426 16.3922 27.7397 16.6303Z" fill="url(#paint0_linear_31417_3442)"/>
<path fill-rule="evenodd" clip-rule="evenodd" d="M5.95506 22.4364C5.95506 21.993 5.94725 21.6209 5.92383 21.2891H6.73649L6.7746 21.8591H6.7974C6.98159 21.5579 7.31843 21.2017 7.94675 21.2017C8.43717 21.2017 8.82024 21.4872 8.98085 21.9145H8.99662C9.1271 21.7008 9.27982 21.5427 9.45589 21.4314C9.66296 21.2813 9.90056 21.2017 10.207 21.2017C10.8275 21.2017 11.4553 21.6369 11.4553 22.8716V25.1427H10.5361V23.0143C10.5361 22.3734 10.3219 21.993 9.87011 21.993C9.5478 21.993 9.31004 22.2308 9.21111 22.508C9.18784 22.6027 9.16489 22.7214 9.16489 22.8315V25.1427H8.24533V22.9111C8.24533 22.3734 8.0388 21.993 7.60202 21.993C7.24956 21.993 7.01235 22.2784 6.92787 22.5468C6.8893 22.6424 6.87384 22.7529 6.87384 22.8635V25.1427H5.95506V22.4364Z" fill="#003A70"/>
<path fill-rule="evenodd" clip-rule="evenodd" d="M15.0365 24.2169C15.0365 24.5649 15.0518 24.9046 15.0901 25.1427H14.2394L14.1783 24.7155H14.1551C13.9254 25.0165 13.5347 25.2298 13.052 25.2298C12.3011 25.2298 11.8799 24.6684 11.8799 24.0824C11.8799 23.1087 12.7146 22.6185 14.0938 22.6264V22.5628C14.0938 22.3095 13.9941 21.8903 13.3353 21.8903C12.9674 21.8903 12.5842 22.0091 12.3315 22.175L12.1474 21.5425C12.4237 21.368 12.9068 21.2017 13.4962 21.2017C14.6919 21.2017 15.0365 21.9856 15.0365 22.824V24.2169ZM14.1168 23.2587C13.4504 23.2427 12.8146 23.3931 12.8146 23.9788C12.8146 24.3582 13.0521 24.5327 13.351 24.5327C13.7259 24.5327 14.0021 24.2794 14.0862 24.0025C14.109 23.9313 14.1168 23.8518 14.1168 23.7887V23.2587Z" fill="#003A70"/>
<path fill-rule="evenodd" clip-rule="evenodd" d="M15.689 22.4364C15.689 21.993 15.6805 21.6209 15.6582 21.2891H16.4849L16.5311 21.8667H16.5538C16.7149 21.5664 17.1209 21.2017 17.7413 21.2017C18.3928 21.2017 19.0669 21.6369 19.0669 22.8558V25.1427H18.1247V22.9669C18.1247 22.4126 17.9255 21.993 17.4121 21.993C17.0367 21.993 16.7763 22.27 16.6765 22.563C16.6463 22.6502 16.6384 22.7692 16.6384 22.8792V25.1427H15.689V22.4364Z" fill="#003A70"/>
<path fill-rule="evenodd" clip-rule="evenodd" d="M23.1511 19.7402V24.0579C23.1511 24.4535 23.1662 24.8816 23.1816 25.1424H22.3388L22.3011 24.5332H22.2855C22.0632 24.9607 21.6105 25.2295 21.0671 25.2295C20.1788 25.2295 19.4737 24.4462 19.4737 23.2592C19.4659 21.9692 20.2473 21.2014 21.1436 21.2014C21.6568 21.2014 22.0248 21.4233 22.1931 21.7084H22.2086V19.7402H23.1511ZM22.2092 22.8937C22.2092 22.8154 22.2014 22.72 22.1866 22.6411C22.1022 22.2612 21.8032 21.9524 21.3742 21.9524C20.769 21.9524 20.4318 22.5067 20.4318 23.2268C20.4318 23.9309 20.769 24.4453 21.3665 24.4453C21.7494 24.4453 22.0867 24.1764 22.1786 23.7571C22.2014 23.6696 22.2092 23.5748 22.2092 23.4716V22.8937Z" fill="#003A70"/>
<path fill-rule="evenodd" clip-rule="evenodd" d="M23.8174 25.1429H24.7683V21.2896H23.8174V25.1429Z" fill="#003A70"/>
<path fill-rule="evenodd" clip-rule="evenodd" d="M25.4351 22.5308C25.4351 22.0088 25.4272 21.6363 25.4043 21.2885H26.2242L26.2542 22.0242H26.286C26.4696 21.4781 26.9063 21.2885 27.3046 21.2885C27.3963 21.2885 27.4499 21.2722 27.5267 21.2885V22.1434C27.4499 22.1275 27.3658 22.1117 27.2508 22.1117C26.7989 22.1117 26.4922 22.4122 26.408 22.8471C26.3931 22.9342 26.3777 23.0375 26.3777 23.1488V25.1423H25.4351V22.5308Z" fill="#003A70"/>
<path fill-rule="evenodd" clip-rule="evenodd" d="M27.9639 25.1429H28.9134V21.2896H27.9639V25.1429Z" fill="#003A70"/>
<defs>
<linearGradient id="paint0_linear_31417_3442" x1="17.3955" y1="20.2155" x2="35.5549" y2="20.2155" gradientUnits="userSpaceOnUse">
<stop stop-color="#FFCA06"/>
<stop offset="0.330844" stop-color="#FBAA18"/>
<stop offset="0.694742" stop-color="#FFC907"/>
<stop offset="1" stop-color="#FAA619"/>
</linearGradient>
</defs>
</svg>
