<svg width="42" height="42" viewBox="0 0 42 42" fill="none" xmlns="http://www.w3.org/2000/svg">
<g clip-path="url(#clip0_31417_3420)">
<rect x="0.740234" y="0.740723" width="40" height="40" rx="2.96296" fill="white"/>
<path d="M18.9853 17.507H19.9924C20.3411 17.507 20.5998 17.5782 20.5998 17.9618C20.5998 18.3555 20.2071 18.4704 19.8957 18.4704H18.7882L18.9853 17.507ZM16.0703 22.3491H19.7249C21.1187 22.3491 22.3489 21.7411 22.3489 20.2057C22.3489 19.6181 21.9754 19.0546 21.3849 18.9293V18.9124H21.3937C22.1621 18.708 22.563 18.1803 22.563 17.378C22.563 16.4572 22.0457 15.976 20.6623 15.976H17.3913L16.0703 22.3491ZM18.5468 19.6579H19.6257C20.0369 19.6579 20.3866 19.7292 20.3866 20.2038C20.3866 20.7205 19.9051 20.8445 19.5554 20.8445H18.2963L18.5468 19.6579Z" fill="#0069AB"/>
<path d="M24.023 22.3491H25.985L26.9676 17.6084H28.7346L29.0752 15.976H23.576L23.2373 17.6084H25.0043L24.023 22.3491Z" fill="#0069AB"/>
<path d="M28.4463 22.3491H30.3113L31.0518 18.779H31.0694L32.2381 22.3491H34.1661L35.5059 15.976H33.6391L32.9255 19.457H32.9086L31.7126 15.976H29.7657L28.4463 22.3491Z" fill="#0069AB"/>
<path d="M15.3428 26.7456C15.4015 26.5287 15.3773 26.5299 15.5223 25.9448C15.6266 25.3681 16.2616 24.4848 17.3813 24.3941C17.7631 24.3485 32.421 23.7257 35.5533 23.5063L35.4594 24.0481C32.5083 24.4295 19.1562 26.2396 15.3428 26.7456Z" fill="#E31C24"/>
<path d="M8.93359 22.3504V23.5078L9.93718 22.9283L10.9411 23.5078V22.3504L9.93718 21.77L8.93359 22.3504Z" fill="#A68561"/>
<path d="M12.9483 22.3491V21.1886L9.93759 19.4504L6.92871 21.1886V22.3491L9.93759 20.6091L12.9483 22.3491Z" fill="#A68561"/>
<path d="M5.92285 17.1334L9.93688 14.8158L13.9515 17.1334V21.7687L12.9476 22.3491V17.7139L9.93688 15.9748L6.92707 17.7139V22.3491L5.92285 21.7687V17.1334Z" fill="#0069AB"/>
<path d="M9.93627 17.1339L11.9434 18.2932V22.9278L10.9405 23.5063V18.8717L9.93627 18.2932L8.93331 18.8717V23.5063L7.93066 22.9278V18.2932L9.93627 17.1339Z" fill="#0069AB"/>
</g>
<rect x="0.370841" y="0.370352" width="40.7407" height="40.7407" rx="8.37037" stroke="#D5D7DA" stroke-width="0.740741"/>
<defs>
<clipPath id="clip0_31417_3420">
<rect x="0.741211" y="0.740723" width="40" height="40" rx="8" fill="white"/>
</clipPath>
</defs>
</svg>
