<svg width="40" height="40" viewBox="0 0 40 40" fill="none" xmlns="http://www.w3.org/2000/svg">
<path d="M20 0.5C30.7696 0.5 39.5 9.23045 39.5 20C39.5 30.7696 30.7696 39.5 20 39.5C9.23045 39.5 0.5 30.7696 0.5 20C0.5 9.23045 9.23045 0.5 20 0.5Z" stroke="#252B37"/>
<path d="M15.3984 28.1052V17.3H11.8101V28.1052H15.3988H15.3984ZM13.605 15.825C14.8561 15.825 15.6349 14.9953 15.6349 13.9584C15.6115 12.8979 14.8561 12.0913 13.6288 12.0913C12.4007 12.0913 11.5986 12.8979 11.5986 13.9583C11.5986 14.9952 12.3772 15.8249 13.5815 15.8249H13.6047L13.605 15.825ZM17.3846 28.1052H20.9726V22.0717C20.9726 21.7492 20.996 21.4259 21.0908 21.1955C21.3501 20.55 21.9405 19.8819 22.9319 19.8819C24.23 19.8819 24.7496 20.8726 24.7496 22.3253V28.1052H28.3375V21.9098C28.3375 18.5911 26.5675 17.0467 24.2068 17.0467C22.2713 17.0467 21.4212 18.1294 20.949 18.8669H20.9729V17.3004H17.3848C17.4316 18.314 17.3845 28.1055 17.3845 28.1055L17.3846 28.1052Z" fill="white"/>
</svg>
