<svg width="42" height="42" viewBox="0 0 42 42" fill="none" xmlns="http://www.w3.org/2000/svg">
<g clip-path="url(#clip0_31417_3394)">
<rect x="0.741211" y="0.740723" width="40" height="40" rx="2.96296" fill="white"/>
<path fill-rule="evenodd" clip-rule="evenodd" d="M5.92969 19.311L8.42932 22.4642L5.92969 24.5355V19.311Z" fill="#F15A23"/>
<path fill-rule="evenodd" clip-rule="evenodd" d="M6.93652 24.5358L8.81737 22.9624L10.1174 24.5358H6.93652Z" fill="#F15A23"/>
<path fill-rule="evenodd" clip-rule="evenodd" d="M5.92969 17.6235L6.582 18.4486L9.26406 21.8001L10.1331 21.108C10.1331 21.108 9.41165 20.2586 8.92719 19.3107C7.98003 17.4575 8.6506 16.3037 8.6506 16.3037H5.92969V17.6235Z" fill="#F15A23"/>
<path fill-rule="evenodd" clip-rule="evenodd" d="M9.64746 22.3185L10.5326 21.5874C10.5326 21.5874 11.3779 22.7002 12.3581 22.9628C13.6426 23.307 14.2113 22.4649 14.2113 22.4649V24.5362H11.39L12.0262 23.9862C12.0262 23.9862 11.6943 24.2075 10.8825 23.6452C10.4034 23.3133 9.64746 22.3185 9.64746 22.3185Z" fill="#F15A23"/>
<path fill-rule="evenodd" clip-rule="evenodd" d="M9.7278 16.2983C9.7278 16.2983 9.44544 16.683 9.64643 17.6241C9.86126 18.6301 10.7156 19.6948 10.7137 19.6709C10.7137 19.6709 10.7686 18.6137 11.389 17.9934C12.7114 16.671 14.2103 17.4582 14.2103 17.4582V16.3044L9.7278 16.2983Z" fill="#F15A23"/>
<path fill-rule="evenodd" clip-rule="evenodd" d="M14.211 18.8525C14.211 18.8525 13.3748 18.1362 12.6477 18.1362C11.7176 18.1362 11.21 18.9392 11.21 19.5216C11.21 20.37 11.6172 20.8415 12.0259 21.2502C12.6133 21.8376 13.3279 22.4711 14.211 21.9612C14.211 20.9962 14.211 18.8525 14.211 18.8525Z" fill="#F15A23"/>
<path fill-rule="evenodd" clip-rule="evenodd" d="M23.7344 16.3848H25.7078C25.7078 16.3848 27.4559 19.0318 28.3151 20.1254C29.1742 21.219 30.099 22.4647 30.099 22.4647C30.099 22.4647 30.099 18.8524 30.099 16.9776C30.099 16.7406 29.4768 16.3848 29.4768 16.3848H31.7524C31.7524 16.3848 31.0057 16.6915 31.0057 16.9776C31.0057 19.3115 31.0057 24.96 31.0057 24.96C31.0057 24.96 30.2892 24.5627 29.4768 23.6186C28.5639 22.5579 25.3166 18.2754 25.3166 18.2754C25.3166 18.2754 25.3166 22.3182 25.3166 23.8222C25.3166 24.1063 25.9389 24.536 25.9389 24.536H23.7344C23.7344 24.536 24.3388 24.1028 24.3388 23.8222C24.3388 21.8009 24.3388 18.8524 24.3388 16.9776C24.3388 16.7257 23.7344 16.3848 23.7344 16.3848Z" fill="#005E6A"/>
<path fill-rule="evenodd" clip-rule="evenodd" d="M33.0264 16.3848H35.5591C35.5591 16.3848 34.879 16.7069 34.879 16.9776C34.879 18.8524 34.879 21.961 34.879 23.8222C34.879 24.118 35.5591 24.536 35.5591 24.536H33.0264C33.0264 24.536 33.6595 24.1085 33.6595 23.8222C33.6595 21.5871 33.6595 18.8524 33.6595 16.9776C33.6595 16.7173 33.0264 16.3848 33.0264 16.3848Z" fill="#005E6A"/>
<path fill-rule="evenodd" clip-rule="evenodd" d="M16.2832 16.3848C16.2832 16.3848 16.9398 16.7122 16.9398 16.9776C16.9398 18.8524 16.9398 21.5871 16.9398 23.8222C16.9398 24.1132 16.2832 24.536 16.2832 24.536C16.2832 24.536 19.5636 24.536 20.0354 24.536C20.2699 24.536 22.8964 24.1065 22.8964 22.0816C22.8964 20.0566 20.8562 19.867 20.8562 19.867C20.8562 19.867 22.0991 19.5215 22.0991 18.1361C22.0991 16.6427 20.2699 16.3848 20.0354 16.3848C19.548 16.3848 16.2832 16.3848 16.2832 16.3848ZM18.2765 19.7328V17.1845C18.2765 17.1845 19.3642 17.1845 19.8009 17.1845C20.0354 17.1845 20.8562 17.4583 20.8562 18.4742C20.8562 19.3115 20.0354 19.7328 19.8009 19.7328C19.2692 19.7328 18.2765 19.7328 18.2765 19.7328ZM18.2765 20.4012C18.2765 20.4012 19.8009 20.4012 20.0354 20.4012C20.2699 20.4012 21.6535 20.7606 21.6535 21.961C21.6535 23.1849 20.2699 23.6186 20.0354 23.6186C19.8009 23.6186 18.2765 23.6186 18.2765 23.6186V20.4012Z" fill="#005E6A"/>
</g>
<rect x="0.370841" y="0.370352" width="40.7407" height="40.7407" rx="8.37037" stroke="#D5D7DA" stroke-width="0.740741"/>
<defs>
<clipPath id="clip0_31417_3394">
<rect x="0.741211" y="0.740723" width="40" height="40" rx="8" fill="white"/>
</clipPath>
</defs>
</svg>
