<svg width="42" height="42" viewBox="0 0 42 42" fill="none" xmlns="http://www.w3.org/2000/svg">
<g clip-path="url(#clip0_31417_3407)">
<rect x="0.742188" y="0.740723" width="40" height="40" rx="2.96296" fill="white"/>
<path d="M15.4216 15.1829H7.63666C6.69271 15.1829 5.92676 15.9674 5.92676 16.9363V24.6439C5.92676 25.6039 6.67756 26.3834 7.61104 26.3972L15.416 26.3975C16.36 26.3975 17.1277 25.6128 17.1277 24.6439L17.1315 16.9363C17.1315 15.9674 16.3653 15.1829 15.4216 15.1829ZM8.56191 25.499L8.13705 25.5041C7.62263 25.5041 7.20735 25.0806 7.20735 24.5601L7.20423 24.485V17.3674L7.20735 16.9837C7.22807 16.4802 7.61015 16.0734 8.11143 16.0734H8.97429C9.75784 16.0734 10.3915 16.754 10.3915 17.5556C10.3915 17.9537 10.2355 18.3131 9.9833 18.5758L7.78148 20.809L9.84607 22.9121C10.1112 23.1871 10.2716 23.5478 10.2716 23.9419C10.2716 24.8016 9.50765 25.499 8.56191 25.499ZM14.9092 25.4925L11.0596 25.4914C11.0596 25.4914 11.5047 24.5285 11.5047 23.9334C11.5047 23.2078 11.2621 22.5584 10.8823 22.1297L9.56624 20.7872L10.9083 19.4001C11.31 19.0227 11.5751 18.355 11.5751 17.5955C11.5751 16.9938 11.4089 16.4606 11.1398 16.0734H12.0731C12.8559 16.0734 13.4902 16.754 13.4902 17.5556C13.4902 17.9537 13.3349 18.3131 13.0834 18.5758L10.9224 20.7863L15.4093 25.3622C15.2663 25.4517 15.0876 25.4925 14.9092 25.4925ZM15.8482 24.0633L12.6323 20.7856L14.1637 19.2297C14.4758 18.8387 14.6746 18.2516 14.6746 17.5955C14.6746 16.9902 14.5053 16.443 14.235 16.056L14.9196 16.0774C15.4332 16.0774 15.8509 16.4996 15.8509 17.0216L15.8482 24.0633Z" fill="#00529C"/>
<path d="M24.0312 20.2644C24.0938 20.2018 24.1678 20.1212 24.2531 20.0225C24.3382 19.9238 24.4189 19.8073 24.4951 19.6727C24.5713 19.5381 24.6363 19.3882 24.69 19.2222C24.7439 19.0565 24.7709 18.8794 24.7709 18.6911C24.7709 18.3237 24.708 17.9808 24.5826 17.6625C24.457 17.3443 24.2642 17.0663 24.0043 16.8286C23.7443 16.5913 23.4194 16.4051 23.0293 16.2705C22.6394 16.1362 22.1843 16.0689 21.6645 16.0689H21.6503H20.1558H19.7668H18.2354V17.783V23.7172V25.4819H22.0007C22.5474 25.4819 23.0246 25.408 23.4328 25.26C23.8405 25.1121 24.1791 24.9083 24.448 24.6483C24.717 24.3883 24.9164 24.0857 25.0465 23.7406C25.1763 23.3955 25.2414 23.0257 25.2414 22.6311C25.2414 22.1022 25.1204 21.6317 24.8785 21.2191C24.6363 20.8069 24.3538 20.4886 24.0312 20.2644ZM22.3663 17.7937C22.4931 17.842 22.5989 17.9049 22.6816 17.984C22.8957 18.1894 23.0028 18.4349 23.0028 18.7205C23.0028 18.9796 22.958 19.1937 22.8689 19.3633C22.7796 19.533 22.6902 19.6625 22.6011 19.7516H19.9836V17.6825H21.6106C21.9156 17.6825 22.1667 17.7202 22.3663 17.7937ZM22.0947 21.3806C22.5686 21.3806 22.9197 21.5034 23.1483 21.7484C23.3633 21.9897 23.4716 22.2744 23.4716 22.6039C23.4716 22.9435 23.3488 23.2333 23.1033 23.4744C22.8576 23.7154 22.4539 23.8362 21.8913 23.8362H21.6812H19.9836V21.3806H22.0947Z" fill="#00529C"/>
<path d="M31.6265 21.4276C31.9088 21.2349 32.1443 21.0108 32.3326 20.7552C32.5208 20.4997 32.6596 20.2174 32.7494 19.9082C32.839 19.5987 32.884 19.2828 32.884 18.96C32.884 18.5387 32.8142 18.1511 32.6754 17.7968C32.5362 17.4428 32.3279 17.138 32.0501 16.8825C31.772 16.627 31.4247 16.4276 31.0079 16.2841C30.591 16.1408 30.1091 16.0689 29.5624 16.0689H29.5132H25.8913H25.8574V25.4819H27.6395V21.9857H28.6332L31.0907 25.4819H33.1796L30.6383 21.8647C31.0145 21.7663 31.3441 21.6206 31.6265 21.4276ZM29.5758 17.6825C29.6878 17.6825 29.7937 17.6899 29.8944 17.7026C30.2121 17.7505 30.4716 17.8639 30.6717 18.0441C30.9439 18.2899 31.08 18.5911 31.08 18.948C31.08 19.1269 31.0509 19.3009 30.9929 19.4704C30.9348 19.6402 30.8434 19.7897 30.7185 19.9189C30.5933 20.0486 30.4326 20.1533 30.2363 20.2337C30.0398 20.3141 29.8032 20.3542 29.5265 20.3542H27.6395V17.6825H29.5758Z" fill="#00529C"/>
<path d="M33.8081 16.0689V16.0715C33.7901 16.0711 33.7725 16.0689 33.7544 16.0689H33.7393V16.0695V19.5199V21.9922V25.4819H35.5563V16.0689H33.8081Z" fill="#00529C"/>
</g>
<rect x="0.370841" y="0.370352" width="40.7407" height="40.7407" rx="8.37037" stroke="#D5D7DA" stroke-width="0.740741"/>
<defs>
<clipPath id="clip0_31417_3407">
<rect x="0.741211" y="0.740723" width="40" height="40" rx="8" fill="white"/>
</clipPath>
</defs>
</svg>
